HIERARCHY
ROOT joint_Root
{
	OFFSET 0.0 0.0 0.0
	CHANNELS 6 Xposition Yposition Zposition Zrotation Xrotation Yrotation 
	JOINT Hips
	{
		OFFSET -0.726466 93.3139 -2.00062
		CHANNELS 6 Xposition Yposition Zposition Zrotation Xrotation Yrotation 
		JOINT Spine
		{
			OFFSET 15.7357 0.0 0.0
			CHANNELS 6 Xposition Yposition Zposition Zrotation Xrotation Yrotation 
			JOINT Chest
			{
				OFFSET 8.98455 -0.406207 0.0
				CHANNELS 6 Xposition Yposition Zposition Zrotation Xrotation Yrotation 
				JOINT Neck
				{
					OFFSET 16.3773 0.0 0.0
					CHANNELS 6 Xposition Yposition Zposition Zrotation Xrotation Yrotation 
					JOINT Head
					{
						OFFSET 6.45672 0.0 0.0
						CHANNELS 6 Xposition Yposition Zposition Zrotation Xrotation Yrotation 
						End Site
						{
							OFFSET 0.0 0.0 0.0
						}
					}
				}
				JOINT Shoulder_L
				{
					OFFSET 12.9942 -0.242716 4.98039
					CHANNELS 6 Xposition Yposition Zposition Zrotation Xrotation Yrotation 
					JOINT UpperArm_L
					{
						OFFSET 5.34809 0.0 0.0
						CHANNELS 6 Xposition Yposition Zposition Zrotation Xrotation Yrotation 
						JOINT LowerArm_L
						{
							OFFSET 24.3286 1.87007e-05 0.0
							CHANNELS 6 Xposition Yposition Zposition Zrotation Xrotation Yrotation 
							JOINT Hand_L
							{
								OFFSET 22.2916 0.0 0.0
								CHANNELS 6 Xposition Yposition Zposition Zrotation Xrotation Yrotation 
								End Site
								{
									OFFSET 0.0 0.0 0.0
								}
							}
						}
					}
				}
				JOINT Shoulder_R
				{
					OFFSET 12.9945 -0.242716 -4.98039
					CHANNELS 6 Xposition Yposition Zposition Zrotation Xrotation Yrotation 
					JOINT UpperArm_R
					{
						OFFSET -5.34813 0.0 0.0
						CHANNELS 6 Xposition Yposition Zposition Zrotation Xrotation Yrotation 
						JOINT LowerArm_R
						{
							OFFSET -24.3289 0.000322201 0.0
							CHANNELS 6 Xposition Yposition Zposition Zrotation Xrotation Yrotation 
							JOINT Hand_R
							{
								OFFSET -22.2915 -0.000108084 0.0
								CHANNELS 6 Xposition Yposition Zposition Zrotation Xrotation Yrotation 
								End Site
								{
									OFFSET 0.0 0.0 0.0
								}
							}
						}
					}
				}
			}
		}
		JOINT UpperLeg_L
		{
			OFFSET -2.19248 -6.46944 0.0
			CHANNELS 6 Xposition Yposition Zposition Zrotation Xrotation Yrotation 
			JOINT LowerLeg_L
			{
				OFFSET 39.0811 0.0 -1.23785e-05
				CHANNELS 6 Xposition Yposition Zposition Zrotation Xrotation Yrotation 
				JOINT Foot_L
				{
					OFFSET 40.9854 0.0 -1.26872e-05
					CHANNELS 6 Xposition Yposition Zposition Zrotation Xrotation Yrotation 
					JOINT Toes_L
					{
						OFFSET 11.7543 0.0 0.0
						CHANNELS 6 Xposition Yposition Zposition Zrotation Xrotation Yrotation 
						End Site
						{
							OFFSET 0.0 0.0 0.0
						}
					}
				}
			}
		}
		JOINT UpperLeg_R
		{
			OFFSET -2.19251 6.46944 0.0
			CHANNELS 6 Xposition Yposition Zposition Zrotation Xrotation Yrotation 
			JOINT LowerLeg_R
			{
				OFFSET -39.0811 -0.00228153 -0.0401928
				CHANNELS 6 Xposition Yposition Zposition Zrotation Xrotation Yrotation 
				JOINT Foot_R
				{
					OFFSET -40.9854 0.0 0.0
					CHANNELS 6 Xposition Yposition Zposition Zrotation Xrotation Yrotation 
					JOINT Toes_R
					{
						OFFSET -11.7543 0.0 0.0
						CHANNELS 6 Xposition Yposition Zposition Zrotation Xrotation Yrotation 
						End Site
						{
							OFFSET 0.0 0.0 0.0
						}
					}
				}
			}
		}
	}
}
MOTION
Frames:	5
Frame Time:	0.0333333
0.000000 0.000000 0.000000 0.000000 0.000000 -0.000000 -2.226120 92.166200 -1.767480 87.738500 -3.341800 2.253260 15.735700 0.000005 -0.000001 59.244300 86.487900 -55.980100 8.984550 -0.406207 -0.000000 -1.612470 -3.858110 6.474400 16.377300 -0.000001 -0.000001 -3.331530 -1.292320 -1.400110 6.456720 -0.000001 -0.000000 -1.385700 -0.437440 5.179930 12.994200 -0.242716 4.980390 -85.306400 -9.788110 -64.222100 5.348090 -0.000007 -0.000001 -63.382400 -52.683100 -103.852000 24.328600 0.000019 0.000005 2.482660 1.887240 -52.781000 22.291600 -0.000001 0.000005 15.785200 5.611630 -12.063500 12.994500 -0.242716 -4.980390 90.010200 -0.027562 -69.592200 -5.348130 -0.000001 -0.000004 -35.202900 74.814100 -13.604100 -24.328900 0.000322 -0.000009 21.099500 2.005470 -84.818700 -22.291500 -0.000108 -0.000004 25.491200 5.681690 -20.498500 -2.192480 -6.469440 -0.000000 -168.620000 -15.365800 -1.996640 39.081100 -0.000007 -0.000012 -0.154235 0.434445 19.545800 40.985400 -0.000006 -0.000013 -6.969860 1.866760 -63.169800 11.754300 -0.000000 0.000003 -0.000026 -0.000323 -16.590200 -2.192510 6.469440 -0.000001 176.160000 17.833900 177.681000 -39.081100 -0.002282 -0.040193 -0.044913 0.135721 19.565300 -40.985400 0.000008 0.000006 -2.101080 2.620350 -63.629600 -11.754300 -0.000006 -0.000006 -0.006451 -0.074876 -19.620800
0.000000 0.000000 0.000000 0.000000 0.000000 -0.000000 -2.231730 92.161700 -1.792150 87.759000 -3.287160 2.270160 15.735700 0.000005 -0.000001 59.129600 86.475200 -55.866000 8.984550 -0.406207 -0.000000 -1.597160 -3.882750 6.473350 16.377300 -0.000001 -0.000001 -3.286780 -1.275290 -1.422840 6.456720 -0.000001 -0.000000 -1.372460 -0.378597 5.174020 12.994200 -0.242716 4.980390 -85.312900 -9.780530 -64.235900 5.348090 -0.000007 -0.000001 -63.392700 -52.638000 -103.828000 24.328600 0.000019 0.000005 2.439870 1.855320 -52.771200 22.291600 -0.000001 0.000005 15.818400 5.611910 -12.081700 12.994500 -0.242716 -4.980390 89.996400 0.009592 -69.576500 -5.348130 -0.000001 -0.000004 -35.072600 74.758500 -13.743500 -24.328900 0.000322 -0.000009 21.065300 1.998360 -84.827900 -22.291500 -0.000108 -0.000004 25.404600 5.681650 -20.465000 -2.192480 -6.469440 -0.000000 -168.636000 -15.342300 -2.024520 39.081100 -0.000007 -0.000012 -0.154094 0.433327 19.575900 40.985400 -0.000006 -0.000013 -6.957230 1.933850 -63.162500 11.754300 -0.000000 0.000003 -0.000030 -0.000363 -16.591700 -2.192510 6.469440 -0.000001 176.134000 17.831400 177.670000 -39.081100 -0.002282 -0.040193 -0.047464 0.142561 19.607900 -40.985400 0.000008 0.000006 -2.166900 2.589490 -63.640800 -11.754300 -0.000006 -0.000006 -0.006362 -0.074086 -19.588600
0.000000 0.000000 0.000000 0.000000 0.000000 -0.000000 -2.232320 92.162500 -1.808300 87.760500 -3.234900 2.339530 15.735700 0.000005 -0.000001 59.176400 86.443600 -55.901000 8.984550 -0.406207 -0.000000 -1.538570 -3.909510 6.498460 16.377300 -0.000001 -0.000001 -3.275850 -1.262010 -1.466620 6.456720 -0.000001 -0.000000 -1.349930 -0.373306 5.135320 12.994200 -0.242716 4.980390 -85.327300 -9.755540 -64.248800 5.348090 -0.000007 -0.000001 -63.416400 -52.576400 -103.777000 24.328600 0.000019 0.000005 2.560060 1.941540 -52.846600 22.291600 -0.000001 0.000005 15.763300 5.609910 -11.953200 12.994500 -0.242716 -4.980390 90.002000 -0.005326 -69.556200 -5.348130 -0.000001 -0.000004 -34.788200 74.736000 -14.066200 -24.328900 0.000322 -0.000009 21.073400 1.994750 -84.839300 -22.291500 -0.000108 -0.000004 25.188700 5.681630 -20.443900 -2.192480 -6.469440 -0.000000 -168.614000 -15.310500 -1.971050 39.081100 -0.000007 -0.000012 -0.154702 0.435231 19.567800 40.985400 -0.000006 -0.000013 -6.958960 1.957190 -63.141400 11.754300 -0.000000 0.000003 -0.000027 -0.000328 -16.590400 -2.192510 6.469440 -0.000001 176.130000 17.811700 177.720000 -39.081100 -0.002282 -0.040193 -0.045174 0.135955 19.631800 -40.985400 0.000008 0.000006 -2.124260 2.513550 -63.650100 -11.754300 -0.000006 -0.000006 -0.006675 -0.076852 -19.701400
0.000000 0.000000 0.000000 0.000000 0.000000 -0.000000 -2.232260 92.163300 -1.841240 87.775600 -3.198060 2.348110 15.735700 0.000005 -0.000001 59.159500 86.436200 -55.882000 8.984550 -0.406207 -0.000000 -1.526570 -3.918740 6.503100 16.377300 -0.000001 -0.000001 -3.245220 -1.271350 -1.467020 6.456720 -0.000001 -0.000000 -1.352710 -0.384265 5.117370 12.994200 -0.242716 4.980390 -85.346900 -9.724650 -64.272700 5.348090 -0.000007 -0.000001 -63.355700 -52.546700 -103.743000 24.328600 0.000019 0.000005 2.646820 2.012020 -52.784200 22.291600 -0.000001 0.000005 15.833100 5.611880 -12.079300 12.994500 -0.242716 -4.980390 90.003000 -0.007996 -69.545300 -5.348130 -0.000001 -0.000004 -34.692200 74.760300 -14.175800 -24.328900 0.000322 -0.000009 21.007000 1.979820 -84.860100 -22.291500 -0.000108 -0.000004 25.263700 5.681630 -20.441700 -2.192480 -6.469440 -0.000000 -168.635000 -15.292700 -1.995100 39.081100 -0.000007 -0.000012 -0.154367 0.434187 19.572000 40.985400 -0.000006 -0.000013 -6.948510 1.978710 -63.120300 11.754300 -0.000000 0.000003 -0.000026 -0.000315 -16.589900 -2.192510 6.469440 -0.000001 176.122000 17.791700 177.693000 -39.081100 -0.002282 -0.040193 -0.045885 0.137678 19.667100 -40.985400 0.000008 0.000006 -2.076350 2.471600 -63.658200 -11.754300 -0.000006 -0.000006 -0.006361 -0.074080 -19.588300
0.000000 0.000000 0.000000 0.000000 0.000000 -0.000000 -2.231390 92.158400 -1.866010 87.782400 -3.205550 2.386370 15.735700 0.000005 -0.000001 59.430100 86.409800 -56.148900 8.984550 -0.406207 -0.000000 -1.463880 -3.915110 6.512440 16.377300 -0.000001 -0.000001 -3.235550 -1.281770 -1.470710 6.456720 -0.000001 -0.000000 -1.401400 -0.408324 5.112630 12.994200 -0.242716 4.980390 -85.332200 -9.753600 -64.267800 5.348090 -0.000007 -0.000001 -63.431700 -52.539600 -103.703000 24.328600 0.000019 0.000005 2.598170 1.968260 -52.878100 22.291600 -0.000001 0.000005 15.784600 5.610420 -11.985800 12.994500 -0.242716 -4.980390 90.004000 -0.010662 -69.575300 -5.348130 -0.000001 -0.000004 -34.788600 74.692400 -14.111800 -24.328900 0.000322 -0.000009 21.051100 1.990630 -84.844000 -22.291500 -0.000108 -0.000004 25.182600 5.681610 -20.432300 -2.192480 -6.469440 -0.000000 -168.638000 -15.326800 -2.010780 39.081100 -0.000007 -0.000012 -0.154380 0.432615 19.639300 40.985400 -0.000006 -0.000013 -6.936140 1.987730 -63.129200 11.754300 -0.000000 0.000003 -0.000024 -0.000297 -16.589200 -2.192510 6.469440 -0.000001 176.102000 17.808900 177.687000 -39.081100 -0.002282 -0.040193 -0.046225 0.138264 19.715100 -40.985400 0.000008 0.000006 -2.133030 2.494530 -63.655100 -11.754300 -0.000006 -0.000006 -0.006625 -0.076409 -19.683300
